# xmcd
#
# Track frame offsets:
#	150
#	18092
#	36122
#	48272
#	70702
#	93415
#	141750
#	155012
#	176555
#	200630
#	224752
#	237547
#	256867
#	280975
#
# Disc length: 3906 seconds
#
# Revision: 1
# Processed by: cddbd v1.4PL0 Copyright (c) Steve Scherf et al.
# Submitted via: audiograbber 1.81.01
#
DISCID=cc0f400e
DTITLE=Charlie Musselwhite - Memphis Charlie
DYEAR=1989
DGENRE=Blues
TTITLE0=It Ain't Right
TTITLE1=Finger Lickin' Good
TTITLE2=Up and Down The Avenue
TTITLE3=Highway Blues
TTITLE4=Wild, Wild Woman
TTITLE5=Takin' My Time
TTITLE6=Crazy For My Baby
TTITLE7=Blue Steel
TTITLE8=Take Me Back
TTITLE9=This Old Nightlife
TTITLE10=Taylor's, Arkansas
TTITLE11=Cut You Loose
TTITLE12=If Trouble Was Money
TTITLE13=On The Spot Boogie
EXTD=
EXTT0=
EXTT1=
EXTT2=
EXTT3=
EXTT4=
EXTT5=
EXTT6=
EXTT7=
EXTT8=
EXTT9=
EXTT10=
EXTT11=
EXTT12=
EXTT13=
PLAYORDER=
